<svg
    xmlns="http://www.w3.org/2000/svg" viewBox="0 0 3000 3000" width="550"
    height="550">
    <path fill="#f2f2f2" d="M2113.17,2027.22H742.11V627.29c0-22.07,17.89-39.96,39.96-39.96h1291.14c22.07,0,39.96,17.89,39.96,39.96
		V2027.22z"></path>
    <ellipse cx="1500" cy="2563.81" fill="#f2f2f2" rx="1450" ry="96.73"></ellipse>
    <path fill="#ffb902" d="M2399.39,2570.24H708.64c-55.84,0-102.46-42.16-108.03-97.53l-94.19-1216.68
			c-2.86-28.32,19.41-52.97,47.89-52.97h950.3c7.48,0,14.48-3.35,19.09-9.23l46.93-59.34c6.36-8.12,16.23-12.89,26.57-12.89h538.39
			c26.09,0,48.05,19.09,51.87,44.86l149.23,1306.25l1.11,8.11L2399.39,2570.24z"></path>
    <path fill="#f9ae06"
          d="M2399.39,2570.24H708.64c-55.84,0-102.46-42.16-108.03-97.53H2336.7l1.11,8.11L2399.39,2570.24z"></path>
    <path fill="#f2a807" d="M2197.47,1234.76h392.66l-88.65,1242.49c-4.89,52.7-49.11,93.01-102.04,93.01l0,0
			c-51.05,0-94.32-37.57-101.47-88.12L2197.47,1234.76z"></path>
    <path fill="#293241" d="M1403.26,1965.15c122.29,0,230.85,77.73,270.14,193.41c2.87,8.45-1.65,17.62-10.1,20.49
						c-8.44,2.87-17.62-1.65-20.48-10.1c-34.84-102.58-131.11-171.5-239.56-171.5c-108.43,0-204.7,68.92-239.56,171.5
						c-2.87,8.45-12.03,12.97-20.49,10.1c-8.44-2.87-12.96-12.04-10.09-20.49C1172.43,2042.87,1281,1965.15,1403.26,1965.15z"></path>
    <ellipse cx="1173.66" cy="1782.81" fill="#293241" rx="58.3" ry="84.75"></ellipse>
    <ellipse cx="1607.62" cy="1782.81" fill="#293241" rx="58.3" ry="84.75"></ellipse>
    <text
        x="320"
        y="2900"
        font-size="236"
        font-family="Sans-serif"
    >No elements to display
    </text>
</svg>
